<?xml version="1.0" encoding="utf-8"?>
<!-- Generator: Adobe Illustrator 25.3.1, SVG Export Plug-In . SVG Version: 6.00 Build 0)  -->
<svg version="1.0" id="Camada_1" xmlns="http://www.w3.org/2000/svg" xmlns:xlink="http://www.w3.org/1999/xlink" x="0px" y="0px"
	 viewBox="0 0 128 128" style="enable-background:new 0 0 128 128;" xml:space="preserve">
<style type="text/css">
	.st0{fill:#197FC1;}
	.st1{fill:#FFFFFF;}
</style>
<g>
	<circle class="st0" cx="64" cy="64" r="63.99"/>
	<g>
		<g>
			<path class="st1" d="M19.98,90.53c0,0,8.16,2.13,13.5,5.09c0,0,2.57,1.34-0.74,1.73c-3.31,0.4-8.55,1.53-11.42,2.62
				s-4.1,1.43-4.1,1.43s-1.5,0.63,0,0.7l20.46,1.47c0,0,3.62,0.4,6.49-1.03c0,0,5.25-2.53,8.3-8.2c2.04-3.8,2.04-9.04,2.04-9.04
				s16.3-1.6,20.14-2.72c0,0,13.15-3.63,19.93-7.83c0,0,6.46-3.05,9.57-5.93s5.71-4.92,8.26-9.43c2.4-4.24,2.54-9.96,2.54-9.96
				s0-4.62-2.35-7.6c0,0,0.18,1.53,0.06,2.4c-0.12,0.87-0.24,2.3-0.72,3.79c0,0-1.02,3.05-2.54,4.67c-1.51,1.61-3.53,3.39-5.18,4.41
				c-1.65,1.03-4.43,2.66-6.97,3.35c-2.54,0.69-4.75,1.15-7.11,1.15c0,0-2.1,0.14-0.87-1.31c1.23-1.45,5.74-6.87,5.74-6.87
				L83.6,54.35l-7.64,0.6c0,0-3.1,0.42-5.64-0.2c-2.54-0.62-7.5-3.18-7.5-3.18l-5.99,16.1C56.84,67.67,33.34,72.43,19.98,90.53z"/>
			<path class="st1" d="M46.42,104.04c0,0,9.72-4.92,10.41-16.42c0,0,37.45-0.51,57.02-25.75
				C113.85,61.88,113.85,104.12,46.42,104.04z"/>
			<path class="st1" d="M75.88,103.82c0,0,9.24-2.65,13.09-5.14c0,0,3.74,0.08,11.73-1.29c0,0-8.72,5.98-14.5,12.48
				C86.21,109.88,80.3,108.24,75.88,103.82z"/>
			<path class="st1" d="M79.51,39.74c0,0,8.33-1.51,12.02-1.66c3.7-0.15,9.96-0.15,12.42,0.53c2.45,0.68,4.34,2.04,4.91,3.26
				c0.57,1.23,1.02,2.74,1.09,3.6c0,0,0.43-1.24,0.43-2.36c0,0,0.05-2.45-0.75-4.86c0,0-1.66-3.65-4.02-5.32
				c0,0-1.63-1.43-8.44-4.25c0,0-13.63-5.62-16.35-6.76c-2.73-1.14-8.71-3.67-8.71-3.67s-1.89-0.65-0.9,0.93l8.49,10.96
				c0,0,3.66,3.46,0.58,8.4L79.51,39.74z"/>
			<circle class="st0" cx="36.83" cy="84.75" r="1.79"/>
		</g>
		<g>
			<path class="st1" d="M44.37,41.88c0.13,0.27-8.54-2.66-9.31-9.56c0,0-0.26-1.89,1.13-3.61c1.58-1.95,3.78-1.46,4.59-0.43
				c0.67,0.86,1.17,4.76,1.38,6.13C42.15,34.42,42.81,38.66,44.37,41.88z"/>
			<path class="st1" d="M53.84,45.46c0.01,0.29-6.8-5.81-4.78-12.45c0,0,0.51-1.84,2.46-2.87c2.22-1.17,4.05,0.15,4.39,1.42
				c0.28,1.05-0.81,4.84-1.15,6.18C54.76,37.73,53.69,41.89,53.84,45.46z"/>
		</g>
	</g>
</g>
</svg>
