<?xml version="1.0" encoding="utf-8"?>
<!-- Generator: Adobe Illustrator 25.3.1, SVG Export Plug-In . SVG Version: 6.00 Build 0)  -->
<svg version="1.0" id="Camada_1" xmlns="http://www.w3.org/2000/svg" xmlns:xlink="http://www.w3.org/1999/xlink" x="0px" y="0px"
	 viewBox="0 0 512 512" style="enable-background:new 0 0 512 512;" xml:space="preserve">
<style type="text/css">
	.st0{fill:#197FC1;}
	.st1{fill:#FFFFFF;}
</style>
<g>
	<circle class="st0" cx="256" cy="256" r="251.58"/>
	<g>
		<g>
			<path class="st1" d="M82.93,360.31c0,0,32.08,8.36,53.08,20.03c0,0,10.11,5.25-2.92,6.8c-13.03,1.56-33.63,6.03-44.91,10.3
				c-11.28,4.28-16.14,5.64-16.14,5.64s-5.88,2.46,0,2.77l80.45,5.8c0,0,14.22,1.59,25.52-4.06c0,0,20.64-9.93,32.62-32.22
				c8.04-14.95,8.04-35.53,8.04-35.53s64.1-6.3,79.2-10.68c0,0,51.71-14.28,78.34-30.79c0,0,25.41-12.01,37.63-23.31
				c12.22-11.3,22.46-19.35,32.46-37.06c9.42-16.68,9.98-39.16,9.98-39.16s0-18.17-9.22-29.86c0,0,0.72,6.02,0.25,9.43
				c-0.47,3.42-0.95,9.06-2.85,14.9c0,0-4.02,12.01-9.97,18.35c-5.94,6.34-13.87,13.31-20.36,17.35
				c-6.5,4.04-17.43,10.46-27.41,13.15s-18.69,4.52-27.97,4.52c0,0-8.24,0.55-3.41-5.15c4.83-5.7,22.58-27.02,22.58-27.02
				l-44.85,3.57l-30.03,2.38c0,0-12.2,1.66-22.19-0.79c-9.98-2.46-29.47-12.52-29.47-12.52l-23.53,63.31
				C227.86,270.45,135.47,289.14,82.93,360.31z"/>
			<path class="st1" d="M186.88,413.44c0,0,38.23-19.34,40.93-64.54c0,0,147.23-2,224.18-101.25
				C451.98,247.65,451.98,413.75,186.88,413.44z"/>
			<path class="st1" d="M302.72,412.58c0,0,36.32-10.42,51.48-20.21c0,0,14.69,0.32,46.11-5.05c0,0-34.27,23.53-57.01,49.08
				C343.31,436.39,320.09,429.95,302.72,412.58z"/>
			<path class="st1" d="M316.97,160.61c0,0,32.74-5.95,47.28-6.54c14.54-0.59,39.17-0.59,48.81,2.08
				c9.64,2.67,17.06,8.02,19.29,12.84c2.23,4.82,4.01,10.75,4.3,14.17c0,0,1.69-4.86,1.69-9.27c0,0,0.18-9.61-2.95-19.1
				c0,0-6.54-14.34-15.82-20.93c0,0-6.41-5.64-33.2-16.7c0,0-53.57-22.1-64.29-26.57c-10.72-4.47-34.24-14.44-34.24-14.44
				s-7.43-2.56-3.53,3.65l33.37,43.08c0,0,14.37,13.61,2.28,33.03L316.97,160.61z"/>
			<circle class="st0" cx="149.18" cy="337.6" r="7.05"/>
		</g>
		<g>
			<path class="st1" d="M178.8,169.02c0.5,1.04-33.57-10.44-36.6-37.58c0,0-1.02-7.42,4.45-14.18c6.2-7.67,14.85-5.75,18.04-1.69
				c2.65,3.37,4.59,18.72,5.41,24.11C170.11,139.69,172.7,156.36,178.8,169.02z"/>
			<path class="st1" d="M216.07,183.11c0.05,1.16-26.73-22.84-18.81-48.97c0,0,1.99-7.22,9.68-11.27c8.72-4.6,15.92,0.58,17.25,5.56
				c1.1,4.15-3.17,19.01-4.54,24.29C219.65,152.72,215.46,169.07,216.07,183.11z"/>
		</g>
	</g>
</g>
</svg>
