<?xml version="1.0" encoding="utf-8"?>
<!-- Generator: Adobe Illustrator 25.3.1, SVG Export Plug-In . SVG Version: 6.00 Build 0)  -->
<svg version="1.0" id="Camada_1" xmlns="http://www.w3.org/2000/svg" xmlns:xlink="http://www.w3.org/1999/xlink" x="0px" y="0px"
	 viewBox="0 0 64 64" style="enable-background:new 0 0 64 64;" xml:space="preserve">
<style type="text/css">
	.st0{fill:#197FC1;}
	.st1{fill:#FFFFFF;}
</style>
<g>
	<circle class="st0" cx="32" cy="32" r="31.99"/>
	<g>
		<g>
			<path class="st1" d="M9.99,45.26c0,0,4.08,1.06,6.75,2.55c0,0,1.29,0.67-0.37,0.87c-1.66,0.2-4.28,0.77-5.71,1.31
				S8.61,50.7,8.61,50.7s-0.75,0.31,0,0.35l10.23,0.74c0,0,1.81,0.2,3.25-0.52c0,0,2.63-1.26,4.15-4.1c1.02-1.9,1.02-4.52,1.02-4.52
				s8.15-0.8,10.07-1.36c0,0,6.58-1.82,9.96-3.92c0,0,3.23-1.53,4.79-2.96s2.86-2.46,4.13-4.71c1.2-2.12,1.27-4.98,1.27-4.98
				s0-2.31-1.17-3.8c0,0,0.09,0.77,0.03,1.2c-0.06,0.43-0.12,1.15-0.36,1.89c0,0-0.51,1.53-1.27,2.33
				c-0.76,0.81-1.76,1.69-2.59,2.21c-0.83,0.51-2.22,1.33-3.49,1.67c-1.27,0.34-2.38,0.57-3.56,0.57c0,0-1.05,0.07-0.43-0.65
				c0.61-0.73,2.87-3.44,2.87-3.44l-5.7,0.45l-3.82,0.3c0,0-1.55,0.21-2.82-0.1c-1.27-0.31-3.75-1.59-3.75-1.59l-2.99,8.05
				C28.42,33.84,16.67,36.21,9.99,45.26z"/>
			<path class="st1" d="M23.21,52.02c0,0,4.86-2.46,5.2-8.21c0,0,18.72-0.25,28.51-12.88C56.92,30.94,56.92,52.06,23.21,52.02z"/>
			<path class="st1" d="M37.94,51.91c0,0,4.62-1.33,6.55-2.57c0,0,1.87,0.04,5.86-0.64c0,0-4.36,2.99-7.25,6.24
				C43.1,54.94,40.15,54.12,37.94,51.91z"/>
			<path class="st1" d="M39.75,19.87c0,0,4.16-0.76,6.01-0.83c1.85-0.08,4.98-0.08,6.21,0.26c1.23,0.34,2.17,1.02,2.45,1.63
				c0.28,0.61,0.51,1.37,0.55,1.8c0,0,0.21-0.62,0.21-1.18c0,0,0.02-1.22-0.38-2.43c0,0-0.83-1.82-2.01-2.66
				c0,0-0.82-0.72-4.22-2.12c0,0-6.81-2.81-8.18-3.38c-1.36-0.57-4.35-1.84-4.35-1.84S35.1,8.8,35.6,9.59l4.24,5.48
				c0,0,1.83,1.73,0.29,4.2L39.75,19.87z"/>
			<circle class="st0" cx="18.42" cy="42.38" r="0.9"/>
		</g>
		<g>
			<path class="st1" d="M22.18,20.94c0.06,0.13-4.27-1.33-4.65-4.78c0,0-0.13-0.94,0.57-1.8c0.79-0.97,1.89-0.73,2.29-0.21
				c0.34,0.43,0.58,2.38,0.69,3.07C21.08,17.21,21.41,19.33,22.18,20.94z"/>
			<path class="st1" d="M26.92,22.73c0.01,0.15-3.4-2.9-2.39-6.23c0,0,0.25-0.92,1.23-1.43c1.11-0.58,2.02,0.07,2.19,0.71
				c0.14,0.53-0.4,2.42-0.58,3.09C27.38,18.87,26.84,20.94,26.92,22.73z"/>
		</g>
	</g>
</g>
</svg>
