<?xml version="1.0" encoding="utf-8"?>
<!-- Generator: Adobe Illustrator 25.3.1, SVG Export Plug-In . SVG Version: 6.00 Build 0)  -->
<svg version="1.0" id="Camada_1" xmlns="http://www.w3.org/2000/svg" xmlns:xlink="http://www.w3.org/1999/xlink" x="0px" y="0px"
	 viewBox="0 0 256 256" style="enable-background:new 0 0 256 256;" xml:space="preserve">
<style type="text/css">
	.st0{fill:#197FC1;}
	.st1{fill:#FFFFFF;}
</style>
<g>
	<circle class="st0" cx="128" cy="128" r="127.98"/>
	<g>
		<g>
			<path class="st1" d="M39.96,181.06c0,0,16.32,4.25,27,10.19c0,0,5.14,2.67-1.48,3.46c-6.63,0.79-17.11,3.07-22.85,5.24
				s-8.21,2.87-8.21,2.87s-2.99,1.25,0,1.41l40.92,2.95c0,0,7.24,0.81,12.98-2.06c0,0,10.5-5.05,16.6-16.39
				c4.09-7.61,4.09-18.07,4.09-18.07s32.61-3.2,40.29-5.43c0,0,26.3-7.26,39.85-15.66c0,0,12.93-6.11,19.14-11.86
				s11.42-9.84,16.51-18.85c4.79-8.49,5.08-19.92,5.08-19.92s0-9.24-4.69-15.19c0,0,0.37,3.06,0.13,4.8
				c-0.24,1.74-0.48,4.61-1.45,7.58c0,0-2.05,6.11-5.07,9.33c-3.02,3.22-7.05,6.77-10.36,8.83c-3.3,2.06-8.87,5.32-13.95,6.69
				c-5.08,1.37-9.51,2.3-14.23,2.3c0,0-4.19,0.28-1.73-2.62c2.46-2.9,11.49-13.74,11.49-13.74l-22.81,1.81l-15.28,1.21
				c0,0-6.21,0.85-11.29-0.4c-5.08-1.25-14.99-6.37-14.99-6.37l-11.97,32.2C113.68,135.35,66.69,144.86,39.96,181.06z"/>
			<path class="st1" d="M92.84,208.09c0,0,19.45-9.84,20.82-32.83c0,0,74.89-1.02,114.04-51.5
				C227.69,123.75,227.69,208.24,92.84,208.09z"/>
			<path class="st1" d="M151.77,207.65c0,0,18.48-5.3,26.19-10.28c0,0,7.47,0.16,23.46-2.57c0,0-17.43,11.97-29,24.97
				C172.41,219.76,160.6,216.49,151.77,207.65z"/>
			<path class="st1" d="M159.01,79.47c0,0,16.65-3.02,24.05-3.33c7.4-0.3,19.92-0.3,24.83,1.06c4.91,1.36,8.68,4.08,9.81,6.53
				c1.13,2.45,2.04,5.47,2.19,7.21c0,0,0.86-2.47,0.86-4.72c0,0,0.09-4.89-1.5-9.72c0,0-3.33-7.29-8.05-10.65
				c0,0-3.26-2.87-16.89-8.5c0,0-27.25-11.24-32.71-13.51c-5.45-2.27-17.42-7.35-17.42-7.35s-3.78-1.3-1.79,1.86l16.97,21.92
				c0,0,7.31,6.92,1.16,16.8L159.01,79.47z"/>
			<circle class="st0" cx="73.66" cy="169.51" r="3.59"/>
		</g>
		<g>
			<path class="st1" d="M88.73,83.75c0.26,0.53-17.08-5.31-18.62-19.12c0,0-0.52-3.77,2.26-7.21c3.16-3.9,7.56-2.92,9.18-0.86
				c1.35,1.72,2.33,9.52,2.75,12.27C84.31,68.83,85.63,77.31,88.73,83.75z"/>
			<path class="st1" d="M107.69,90.92c0.03,0.59-13.6-11.62-9.57-24.91c0,0,1.01-3.67,4.93-5.73c4.44-2.34,8.1,0.29,8.77,2.83
				c0.56,2.11-1.61,9.67-2.31,12.36C109.51,75.47,107.38,83.78,107.69,90.92z"/>
		</g>
	</g>
</g>
</svg>
